<svg width="16" height="16" viewBox="0 0 16 16" fill="none" xmlns="http://www.w3.org/2000/svg">
<circle cx="8" cy="8" r="8" fill="#C4C4C4"/>
<path d="M9.78303 8.26666L12.0573 5.99234C12.3364 5.71325 12.3364 5.26075 12.0573 4.98144L11.5519 4.47598C11.2728 4.19689 10.8203 4.19689 10.541 4.47598L8.26666 6.7503L5.99234 4.47598C5.71325 4.19689 5.26075 4.19689 4.98144 4.47598L4.47598 4.98144C4.19689 5.26053 4.19689 5.71303 4.47598 5.99234L6.7503 8.26666L4.47598 10.541C4.19689 10.8201 4.19689 11.2726 4.47598 11.5519L4.98144 12.0573C5.26053 12.3364 5.71325 12.3364 5.99234 12.0573L8.26666 9.78303L10.541 12.0573C10.8201 12.3364 11.2728 12.3364 11.5519 12.0573L12.0573 11.5519C12.3364 11.2728 12.3364 10.8203 12.0573 10.541L9.78303 8.26666Z" fill="white"/>
</svg>
